<?xml version="1.0" encoding="UTF-8" standalone="no"?>
<!-- Uploaded to: SVG Repo, www.svgrepo.com, Generator: SVG Repo Mixer Tools -->

<svg
   fill="#000000"
   width="800px"
   height="800px"
   viewBox="-1 0 19 19"
   class="cf-icon-svg"
   version="1.1"
   id="svg1"
   sodipodi:docname="icone_medecins.svg"
   inkscape:version="1.4 (86a8ad7, 2024-10-11)"
   xmlns:inkscape="http://www.inkscape.org/namespaces/inkscape"
   xmlns:sodipodi="http://sodipodi.sourceforge.net/DTD/sodipodi-0.dtd"
   xmlns="http://www.w3.org/2000/svg"
   xmlns:svg="http://www.w3.org/2000/svg">
  <defs
     id="defs1" />
  <sodipodi:namedview
     id="namedview1"
     pagecolor="#ffffff"
     bordercolor="#000000"
     borderopacity="0.25"
     inkscape:showpageshadow="2"
     inkscape:pageopacity="0.0"
     inkscape:pagecheckerboard="0"
     inkscape:deskcolor="#d1d1d1"
     inkscape:zoom="1.01875"
     inkscape:cx="400.4908"
     inkscape:cy="400"
     inkscape:window-width="1920"
     inkscape:window-height="1017"
     inkscape:window-x="-8"
     inkscape:window-y="-8"
     inkscape:window-maximized="1"
     inkscape:current-layer="svg1" />
  <rect
     style="fill:#ffffff;stroke-width:0.0179528"
     id="rect1"
     width="9.9079752"
     height="10.444172"
     x="4.0355825"
     y="4.6392636"
     ry="0.092472322" />
  <path
     d="M16.417 9.579A7.917 7.917 0 1 1 8.5 1.662a7.917 7.917 0 0 1 7.917 7.917zm-3.193-.767a1.588 1.588 0 1 0-1.999 1.534v1.515a2.014 2.014 0 0 1-4.027 0v-.334a2.676 2.676 0 0 0 2.262-2.64v-2.14a1.244 1.244 0 0 0-.506-1.002.894.894 0 1 0-.395.754.424.424 0 0 1 .08.248v2.14a1.851 1.851 0 1 1-3.703 0v-2.14a.422.422 0 0 1 .1-.273.895.895 0 1 0-.356-.77 1.245 1.245 0 0 0-.565 1.043v2.14a2.676 2.676 0 0 0 2.262 2.64v.334a2.835 2.835 0 1 0 5.67 0v-1.515a1.59 1.59 0 0 0 1.177-1.534zm-.821 0a.767.767 0 1 1-.767-.767.768.768 0 0 1 .767.767z"
     id="path1"
     style="stroke-width:0.99999375;stroke-dasharray:none;fill:#106b61;fill-opacity:1" />
</svg>
